<svg width="26" height="26" viewBox="0 0 26 26" fill="none" xmlns="http://www.w3.org/2000/svg">
<path d="M13.0003 22.2857C18.1287 22.2857 22.286 18.1283 22.286 12.9999C22.286 7.87161 18.1287 3.71423 13.0003 3.71423C7.87197 3.71423 3.7146 7.87161 3.7146 12.9999C3.7146 14.8272 4.24248 16.5312 5.15393 17.9678L3.7146 22.2857L8.03248 20.8464C9.46909 21.7578 11.173 22.2857 13.0003 22.2857Z" fill="#00E676"/>
<path fill-rule="evenodd" clip-rule="evenodd" d="M23.8334 12.721C23.8334 18.55 19.0717 23.2753 13.1969 23.2753C11.3319 23.2753 9.57982 22.7986 8.05545 21.962L2.16669 23.8333L4.08659 18.1706C3.11809 16.5803 2.5603 14.715 2.5603 12.721C2.5603 6.89191 7.32239 2.16666 13.1969 2.16666C19.0722 2.16666 23.8334 6.89191 23.8334 12.721ZM13.1969 3.84753C8.2656 3.84753 4.25438 7.82818 4.25438 12.721C4.25438 14.6626 4.88729 16.4607 5.95786 17.9234L4.84059 21.2189L8.27716 20.1267C9.68911 21.0537 11.3805 21.5945 13.1972 21.5945C18.1278 21.5945 22.1397 17.6143 22.1397 12.7215C22.1397 7.82866 18.128 3.84753 13.1969 3.84753ZM18.2095 14.9184C18.3919 15.0058 18.5151 15.0649 18.5681 15.1517C18.6329 15.2596 18.6329 15.7774 18.4162 16.3822C18.1981 16.9859 17.1335 17.5685 16.6559 17.6116C16.574 17.619 16.5062 17.6353 16.4366 17.652C16.1 17.7328 15.7238 17.8231 13.527 16.965C11.0775 16.0077 9.463 13.6315 9.12933 13.1405C9.10194 13.1001 9.08318 13.0725 9.0733 13.0595L9.07286 13.0589C8.94053 12.8844 8.00874 11.6557 8.00874 10.3841C8.00874 9.19316 8.59826 8.56857 8.86973 8.28095C8.88839 8.26118 8.90555 8.243 8.92091 8.22634C9.15996 7.96754 9.44259 7.90278 9.61641 7.90278C9.70624 7.90278 9.79614 7.90857 9.88301 7.91416C9.96422 7.91939 10.0428 7.92445 10.1162 7.92445C10.1344 7.92445 10.1536 7.92322 10.1735 7.92193C10.3205 7.91247 10.5115 7.90017 10.7026 8.35586C10.7722 8.5219 10.8731 8.76549 10.9803 9.02412C11.2074 9.57245 11.4625 10.1884 11.5067 10.2762C11.5722 10.406 11.6158 10.557 11.5284 10.7296C11.516 10.7544 11.5044 10.7779 11.4934 10.8003C11.4277 10.9342 11.3798 11.0317 11.2679 11.1612C11.2247 11.2112 11.1801 11.2651 11.1355 11.319C11.0454 11.4278 10.9552 11.5367 10.8767 11.6143C10.7464 11.7431 10.6104 11.883 10.7623 12.1417C10.9145 12.401 11.4379 13.2475 12.2128 13.9331C13.0464 14.6706 13.7708 14.9824 14.1375 15.1403C14.2089 15.171 14.2667 15.1959 14.3092 15.217C14.5701 15.3465 14.722 15.3248 14.8742 15.1517C15.0266 14.9791 15.5264 14.3968 15.6999 14.1377C15.8735 13.8789 16.0478 13.9223 16.2869 14.0085C16.5252 14.0944 17.8074 14.7206 18.0683 14.8498C18.1187 14.8748 18.1658 14.8974 18.2095 14.9184Z" fill="white"/>
</svg>
